<svg xmlns="http://www.w3.org/2000/svg" viewBox="0 0 1920 1080" fill="none">
  <defs>
    <linearGradient id="skyGradient" x1="0%" y1="0%" x2="0%" y2="100%">
      <stop offset="0%" style="stop-color:#1e293b;stop-opacity:1" />
      <stop offset="100%" style="stop-color:#334155;stop-opacity:1" />
    </linearGradient>
    <linearGradient id="buildingGradient1" x1="0%" y1="0%" x2="0%" y2="100%">
      <stop offset="0%" style="stop-color:#475569;stop-opacity:1" />
      <stop offset="100%" style="stop-color:#334155;stop-opacity:1" />
    </linearGradient>
    <linearGradient id="buildingGradient2" x1="0%" y1="0%" x2="0%" y2="100%">
      <stop offset="0%" style="stop-color:#64748b;stop-opacity:1" />
      <stop offset="100%" style="stop-color:#475569;stop-opacity:1" />
    </linearGradient>
  </defs>
  
  <!-- Sky background -->
  <rect width="1920" height="1080" fill="url(#skyGradient)"/>
  
  <!-- Buildings silhouette -->
  <g opacity="0.8">
    <!-- Building 1 -->
    <rect x="0" y="600" width="200" height="480" fill="url(#buildingGradient1)"/>
    <rect x="20" y="620" width="15" height="20" fill="#fbbf24" opacity="0.6"/>
    <rect x="50" y="640" width="15" height="20" fill="#fbbf24" opacity="0.4"/>
    <rect x="80" y="660" width="15" height="20" fill="#fbbf24" opacity="0.7"/>
    <rect x="110" y="630" width="15" height="20" fill="#fbbf24" opacity="0.5"/>
    <rect x="140" y="650" width="15" height="20" fill="#fbbf24" opacity="0.6"/>
    <rect x="170" y="670" width="15" height="20" fill="#fbbf24" opacity="0.4"/>
    
    <!-- Building 2 -->
    <rect x="200" y="500" width="180" height="580" fill="url(#buildingGradient2)"/>
    <rect x="220" y="520" width="12" height="18" fill="#fbbf24" opacity="0.5"/>
    <rect x="240" y="540" width="12" height="18" fill="#fbbf24" opacity="0.7"/>
    <rect x="260" y="560" width="12" height="18" fill="#fbbf24" opacity="0.4"/>
    <rect x="280" y="520" width="12" height="18" fill="#fbbf24" opacity="0.6"/>
    <rect x="300" y="580" width="12" height="18" fill="#fbbf24" opacity="0.5"/>
    <rect x="320" y="540" width="12" height="18" fill="#fbbf24" opacity="0.7"/>
    <rect x="340" y="560" width="12" height="18" fill="#fbbf24" opacity="0.4"/>
    
    <!-- Building 3 -->
    <rect x="380" y="650" width="160" height="430" fill="url(#buildingGradient1)"/>
    <rect x="400" y="670" width="14" height="19" fill="#fbbf24" opacity="0.6"/>
    <rect x="425" y="690" width="14" height="19" fill="#fbbf24" opacity="0.4"/>
    <rect x="450" y="710" width="14" height="19" fill="#fbbf24" opacity="0.7"/>
    <rect x="475" y="680" width="14" height="19" fill="#fbbf24" opacity="0.5"/>
    <rect x="500" y="700" width="14" height="19" fill="#fbbf24" opacity="0.6"/>
    
    <!-- Building 4 -->
    <rect x="540" y="550" width="220" height="530" fill="url(#buildingGradient2)"/>
    <rect x="560" y="570" width="16" height="22" fill="#fbbf24" opacity="0.5"/>
    <rect x="590" y="590" width="16" height="22" fill="#fbbf24" opacity="0.7"/>
    <rect x="620" y="610" width="16" height="22" fill="#fbbf24" opacity="0.4"/>
    <rect x="650" y="570" width="16" height="22" fill="#fbbf24" opacity="0.6"/>
    <rect x="680" y="630" width="16" height="22" fill="#fbbf24" opacity="0.5"/>
    <rect x="710" y="590" width="16" height="22" fill="#fbbf24" opacity="0.7"/>
    
    <!-- Building 5 -->
    <rect x="760" y="700" width="140" height="380" fill="url(#buildingGradient1)"/>
    <rect x="780" y="720" width="13" height="17" fill="#fbbf24" opacity="0.6"/>
    <rect x="805" y="740" width="13" height="17" fill="#fbbf24" opacity="0.4"/>
    <rect x="830" y="760" width="13" height="17" fill="#fbbf24" opacity="0.7"/>
    <rect x="855" y="730" width="13" height="17" fill="#fbbf24" opacity="0.5"/>
    
    <!-- Building 6 -->
    <rect x="900" y="600" width="190" height="480" fill="url(#buildingGradient2)"/>
    <rect x="920" y="620" width="15" height="20" fill="#fbbf24" opacity="0.5"/>
    <rect x="950" y="640" width="15" height="20" fill="#fbbf24" opacity="0.7"/>
    <rect x="980" y="660" width="15" height="20" fill="#fbbf24" opacity="0.4"/>
    <rect x="1010" y="630" width="15" height="20" fill="#fbbf24" opacity="0.6"/>
    <rect x="1040" y="650" width="15" height="20" fill="#fbbf24" opacity="0.5"/>
    
    <!-- Building 7 -->
    <rect x="1090" y="750" width="120" height="330" fill="url(#buildingGradient1)"/>
    <rect x="1110" y="770" width="12" height="16" fill="#fbbf24" opacity="0.6"/>
    <rect x="1135" y="790" width="12" height="16" fill="#fbbf24" opacity="0.4"/>
    <rect x="1160" y="810" width="12" height="16" fill="#fbbf24" opacity="0.7"/>
    <rect x="1185" y="780" width="12" height="16" fill="#fbbf24" opacity="0.5"/>
    
    <!-- Building 8 -->
    <rect x="1210" y="650" width="170" height="430" fill="url(#buildingGradient2)"/>
    <rect x="1230" y="670" width="14" height="19" fill="#fbbf24" opacity="0.5"/>
    <rect x="1255" y="690" width="14" height="19" fill="#fbbf24" opacity="0.7"/>
    <rect x="1280" y="710" width="14" height="19" fill="#fbbf24" opacity="0.4"/>
    <rect x="1305" y="680" width="14" height="19" fill="#fbbf24" opacity="0.6"/>
    <rect x="1330" y="700" width="14" height="19" fill="#fbbf24" opacity="0.5"/>
    <rect x="1355" y="720" width="14" height="19" fill="#fbbf24" opacity="0.7"/>
    
    <!-- Building 9 -->
    <rect x="1380" y="800" width="100" height="280" fill="url(#buildingGradient1)"/>
    <rect x="1400" y="820" width="11" height="15" fill="#fbbf24" opacity="0.6"/>
    <rect x="1425" y="840" width="11" height="15" fill="#fbbf24" opacity="0.4"/>
    <rect x="1450" y="860" width="11" height="15" fill="#fbbf24" opacity="0.7"/>
    
    <!-- Building 10 -->
    <rect x="1480" y="700" width="160" height="380" fill="url(#buildingGradient2)"/>
    <rect x="1500" y="720" width="13" height="18" fill="#fbbf24" opacity="0.5"/>
    <rect x="1525" y="740" width="13" height="18" fill="#fbbf24" opacity="0.7"/>
    <rect x="1550" y="760" width="13" height="18" fill="#fbbf24" opacity="0.4"/>
    <rect x="1575" y="730" width="13" height="18" fill="#fbbf24" opacity="0.6"/>
    <rect x="1600" y="750" width="13" height="18" fill="#fbbf24" opacity="0.5"/>
    
    <!-- Building 11 -->
    <rect x="1640" y="600" width="180" height="480" fill="url(#buildingGradient1)"/>
    <rect x="1660" y="620" width="15" height="20" fill="#fbbf24" opacity="0.6"/>
    <rect x="1690" y="640" width="15" height="20" fill="#fbbf24" opacity="0.4"/>
    <rect x="1720" y="660" width="15" height="20" fill="#fbbf24" opacity="0.7"/>
    <rect x="1750" y="630" width="15" height="20" fill="#fbbf24" opacity="0.5"/>
    <rect x="1780" y="650" width="15" height="20" fill="#fbbf24" opacity="0.6"/>
    
    <!-- Building 12 -->
    <rect x="1820" y="750" width="100" height="330" fill="url(#buildingGradient2)"/>
    <rect x="1840" y="770" width="12" height="16" fill="#fbbf24" opacity="0.5"/>
    <rect x="1865" y="790" width="12" height="16" fill="#fbbf24" opacity="0.7"/>
    <rect x="1890" y="810" width="12" height="16" fill="#fbbf24" opacity="0.4"/>
  </g>
</svg>